<?xml version="1.0" encoding="iso-8859-1"?>
<!-- Generator: Adobe Illustrator 19.0.0, SVG Export Plug-In . SVG Version: 6.00 Build 0)  -->
<svg xmlns="http://www.w3.org/2000/svg" xmlns:xlink="http://www.w3.org/1999/xlink" version="1.1" id="Layer_1" x="0px" y="0px" viewBox="0 0 470 470" style="enable-background:new 0 0 470 470;" xml:space="preserve" width="512px" height="512px">
<g>
	<g>
		<g>
			<path d="M375,0H95C74.322,0,57.5,16.822,57.5,37.5v395c0,20.678,16.822,37.5,37.5,37.5h280c20.678,0,37.5-16.822,37.5-37.5v-395     C412.5,16.822,395.678,0,375,0z M397.5,432.5c0,12.406-10.094,22.5-22.5,22.5H95c-12.406,0-22.5-10.094-22.5-22.5v-395     C72.5,25.094,82.594,15,95,15h280c12.406,0,22.5,10.094,22.5,22.5V432.5z" fill="#D80027"/>
			<path d="M155,40c-31.706,0-57.5,25.794-57.5,57.5S123.294,155,155,155s57.5-25.794,57.5-57.5S186.706,40,155,40z M155,140     c-23.435,0-42.5-19.065-42.5-42.5c0-20.875,15.132-38.27,35-41.824V97.5c0,4.143,3.357,7.5,7.5,7.5s7.5-3.357,7.5-7.5V55.676     c19.868,3.554,35,20.949,35,41.824C197.5,120.935,178.435,140,155,140z" fill="#D80027"/>
			<path d="M155,180c-31.706,0-57.5,25.794-57.5,57.5S123.294,295,155,295s57.5-25.794,57.5-57.5S186.706,180,155,180z M155,280     c-23.435,0-42.5-19.065-42.5-42.5c0-20.875,15.132-38.27,35-41.824V237.5c0,4.143,3.357,7.5,7.5,7.5s7.5-3.357,7.5-7.5v-41.824     c19.868,3.554,35,20.949,35,41.824C197.5,260.935,178.435,280,155,280z" fill="#D80027"/>
			<path d="M155,335c-26.191,0-47.5,21.309-47.5,47.5c0,26.191,21.309,47.5,47.5,47.5s47.5-21.309,47.5-47.5     C202.5,356.309,181.191,335,155,335z M155,415c-17.921,0-32.5-14.579-32.5-32.5c0-17.921,14.579-32.5,32.5-32.5     s32.5,14.579,32.5,32.5C187.5,400.421,172.921,415,155,415z" fill="#D80027"/>
			<path d="M155,372.5c-5.514,0-10,4.486-10,10c0,5.514,4.486,10,10,10c5.514,0,10-4.486,10-10C165,376.986,160.514,372.5,155,372.5     z" fill="#D80027"/>
			<path d="M315,40c-31.706,0-57.5,25.794-57.5,57.5S283.294,155,315,155s57.5-25.794,57.5-57.5S346.706,40,315,40z M315,140     c-23.435,0-42.5-19.065-42.5-42.5c0-20.875,15.132-38.27,35-41.824V97.5c0,4.143,3.357,7.5,7.5,7.5s7.5-3.357,7.5-7.5V55.676     c19.868,3.554,35,20.949,35,41.824C357.5,120.935,338.435,140,315,140z" fill="#D80027"/>
			<path d="M315,180c-31.706,0-57.5,25.794-57.5,57.5S283.294,295,315,295s57.5-25.794,57.5-57.5S346.706,180,315,180z M315,280     c-23.435,0-42.5-19.065-42.5-42.5c0-20.875,15.132-38.27,35-41.824V237.5c0,4.143,3.357,7.5,7.5,7.5s7.5-3.357,7.5-7.5v-41.824     c19.868,3.554,35,20.949,35,41.824C357.5,260.935,338.435,280,315,280z" fill="#D80027"/>
			<path d="M315,335c-26.191,0-47.5,21.309-47.5,47.5c0,26.191,21.309,47.5,47.5,47.5c26.191,0,47.5-21.309,47.5-47.5     C362.5,356.309,341.191,335,315,335z M315,415c-17.921,0-32.5-14.579-32.5-32.5c0-17.921,14.579-32.5,32.5-32.5     c17.921,0,32.5,14.579,32.5,32.5C347.5,400.421,332.921,415,315,415z" fill="#D80027"/>
			<path d="M315,372.5c-5.514,0-10,4.486-10,10c0,5.514,4.486,10,10,10c5.514,0,10-4.486,10-10C325,376.986,320.514,372.5,315,372.5     z" fill="#D80027"/>
			<path d="M235,322.5c-4.143,0-7.5,3.357-7.5,7.5v92.5c0,4.143,3.357,7.5,7.5,7.5s7.5-3.357,7.5-7.5V330     C242.5,325.857,239.143,322.5,235,322.5z" fill="#D80027"/>
			<path d="M235,40c-4.143,0-7.5,3.357-7.5,7.5V300c0,4.143,3.357,7.5,7.5,7.5s7.5-3.357,7.5-7.5V47.5     C242.5,43.357,239.143,40,235,40z" fill="#D80027"/>
		</g>
	</g>
</g>
<g>
</g>
<g>
</g>
<g>
</g>
<g>
</g>
<g>
</g>
<g>
</g>
<g>
</g>
<g>
</g>
<g>
</g>
<g>
</g>
<g>
</g>
<g>
</g>
<g>
</g>
<g>
</g>
<g>
</g>
</svg>
